<svg width="182" height="65" viewBox="0 0 182 65" fill="none" xmlns="http://www.w3.org/2000/svg">
<path d="M0.665547 2H32.6555V9.14H8.71555V22.72H28.4555V29.65H8.71555V43.86H33.4956V51H0.665547V2ZM58.2389 14.74C62.4856 14.74 65.9389 16.0467 68.5989 18.66C71.3056 21.2733 72.6589 25.4733 72.6589 31.26V51H65.0289V31.68C65.0289 28.2733 64.3056 25.6833 62.8589 23.91C61.4122 22.1367 59.2889 21.25 56.4889 21.25C53.5022 21.25 51.1456 22.3 49.4189 24.4C47.7389 26.4533 46.8989 29.3 46.8989 32.94V51H39.3389V15.16H45.9189L46.7589 19.85C49.4656 16.4433 53.2922 14.74 58.2389 14.74ZM83.7342 0.809999C85.0409 0.809999 86.1142 1.25333 86.9542 2.14C87.8409 2.98 88.2842 4.05333 88.2842 5.36C88.2842 6.66667 87.8409 7.76333 86.9542 8.65C86.1142 9.49 85.0409 9.91 83.7342 9.91C82.3809 9.91 81.2609 9.49 80.3742 8.65C79.5342 7.76333 79.1142 6.66667 79.1142 5.36C79.1142 4.05333 79.5576 2.98 80.4442 2.14C81.3309 1.25333 82.4276 0.809999 83.7342 0.809999ZM76.1742 58.35C77.4809 58.35 78.4376 58.0233 79.0442 57.37C79.6509 56.7633 79.9542 55.7833 79.9542 54.43V15.16H87.5142V54.99C87.5142 61.6633 84.2476 65 77.7142 65H72.1142V58.35H76.1742ZM111.787 51.42C108.193 51.42 104.997 50.6733 102.197 49.18C99.4434 47.64 97.2967 45.4933 95.7567 42.74C94.2634 39.94 93.5167 36.72 93.5167 33.08C93.5167 29.4867 94.2634 26.3133 95.7567 23.56C97.2967 20.76 99.4434 18.59 102.197 17.05C104.997 15.51 108.193 14.74 111.787 14.74C115.38 14.74 118.553 15.51 121.307 17.05C124.107 18.59 126.253 20.76 127.747 23.56C129.287 26.3133 130.057 29.4867 130.057 33.08C130.057 36.72 129.287 39.94 127.747 42.74C126.253 45.4933 124.107 47.64 121.307 49.18C118.553 50.6733 115.38 51.42 111.787 51.42ZM111.787 44.98C114.96 44.98 117.503 43.8833 119.417 41.69C121.377 39.45 122.357 36.58 122.357 33.08C122.357 29.58 121.377 26.7333 119.417 24.54C117.503 22.3 114.96 21.18 111.787 21.18C108.613 21.18 106.07 22.3 104.157 24.54C102.243 26.7333 101.287 29.58 101.287 33.08C101.287 36.58 102.243 39.45 104.157 41.69C106.07 43.8833 108.613 44.98 111.787 44.98ZM139.249 15.16L149.259 42.81L158.989 15.16H167.039L150.799 56.6C149.959 58.7467 149.189 60.38 148.489 61.5C147.789 62.6667 146.925 63.53 145.899 64.09C144.872 64.6967 143.495 65 141.769 65H133.649V58.35H138.969C140.415 58.35 141.419 58.1167 141.979 57.65C142.539 57.23 143.122 56.25 143.729 54.71L145.199 51.28L131.199 15.16H139.249ZM173.662 36.09L172.472 2H180.592L179.402 36.09H173.662ZM171.632 46.66C171.632 45.26 172.099 44.1167 173.032 43.23C173.966 42.3433 175.132 41.9 176.532 41.9C177.932 41.9 179.076 42.3433 179.962 43.23C180.896 44.1167 181.362 45.26 181.362 46.66C181.362 48.06 180.896 49.2033 179.962 50.09C179.076 50.9767 177.932 51.42 176.532 51.42C175.132 51.42 173.966 50.9767 173.032 50.09C172.099 49.2033 171.632 48.06 171.632 46.66Z" fill="white"/>
</svg>
