<?xml version="1.0" encoding="utf-8"?>
<!-- Generator: Adobe Illustrator 23.0.4, SVG Export Plug-In . SVG Version: 6.00 Build 0)  -->
<svg version="1.1" id="Livello_1" xmlns="http://www.w3.org/2000/svg" xmlns:xlink="http://www.w3.org/1999/xlink" x="0px" y="0px"
	 viewBox="0 0 369 294" style="enable-background:new 0 0 369 294;" xml:space="preserve">
<style type="text/css">
	.st0{fill:#DB1D51;fill-opacity:0.5;}
	.st1{fill:none;stroke:#FFFFFF;stroke-width:0.5;}
</style>
<path class="st0" d="M135,4.5L368,14l33,61l2.5,186L379,315.5L280.5,326l-275-10.5l-22.5-48L-0.5,0L135,4.5z"/>
<path class="st1" d="M-1771.6,159l1052.5,325L1502.4,55.8L23.3,5.7L-1771.6,159z"/>
<path class="st1" d="M-33.5,7.6L1455,63.1"/>
<path class="st1" d="M-90.2,13l1495.9,58.8"/>
<path class="st1" d="M-148.8,18.4l1503.3,63.8"/>
<path class="st1" d="M-211,24l1510.8,68.9"/>
<path class="st1" d="M-273.3,29.5l1514.7,75.9"/>
<path class="st1" d="M-341,35.2l1518.5,81.1"/>
<path class="st1" d="M-410.6,40.9l1522.4,88"/>
<path class="st1" d="M-482,46.7l1522.6,95.2"/>
<path class="st1" d="M-555.3,52.6l1521,104.1"/>
<path class="st1" d="M-634,60.4L881.8,173.6"/>
<path class="st1" d="M-714.6,66.5L794.2,190.7"/>
<path class="st1" d="M-798.8,74.4L699.3,209.8"/>
<path class="st1" d="M-888.5,82.5L593.4,229.2"/>
<path class="st1" d="M-980.1,88.9L482,250.6"/>
<path class="st1" d="M-1077.1,97.1l1435,177.1"/>
<path class="st1" d="M-1179.7,105.6L222.8,300"/>
<path class="st1" d="M-1285.9,114l1359,215.9"/>
<path class="st1" d="M-828.2,452.1L1395.6,53.8"/>
<path class="st1" d="M-928.1,420L1292.6,49.3"/>
<path class="st1" d="M-1015,393.1L1195.1,46.6"/>
<path class="st1" d="M-1092.7,367.8L1103.2,41.8"/>
<path class="st1" d="M-1164.8,344.1L1014.9,38.8"/>
<path class="st1" d="M-1229.6,323.9L930.3,35.7"/>
<path class="st1" d="M-1286.9,305.3L851.2,32.4"/>
<path class="st1" d="M-1340.6,288.5L775.8,30.8"/>
<path class="st1" d="M-1390.5,273.4l2092.8-246"/>
<path class="st1" d="M-1434.9,258.1L632.4,23.8"/>
<path class="st1" d="M-1477.5,244.6L564.4,22.1"/>
<path class="st1" d="M-1516.3,231L500,18.4"/>
<path class="st1" d="M-1553.3,219.2L439.3,16.4"/>
<path class="st1" d="M-1586.6,209.1L380.5,14.4"/>
<path class="st1" d="M-1618.1,199L323.5,12.3"/>
<path class="st1" d="M-1647.7,190.7l1916-180.5"/>
<path class="st1" d="M-1675.4,180.4L215,8"/>
<path class="st1" d="M-1701.3,172L165.4,5.8"/>
<path class="st1" d="M-1725.4,163.5L115.8,3.5"/>
<path class="st1" d="M-1749.4,156.8L68,1.2"/>
</svg>
