<svg width="132" height="37" viewBox="0 0 132 37" fill="none" xmlns="http://www.w3.org/2000/svg">
<rect width="131.25" height="36.4032" rx="18.2016" fill="white"/>
<path d="M32.1062 20.504C32.1062 17.648 27.6782 17.048 27.6782 14.996C27.6782 14.756 27.7382 14.504 27.8702 14.216L30.3542 15.716L32.0462 14.348C31.2182 13.7 30.3662 13.22 29.1782 13.22C27.4502 13.22 26.2262 14.384 26.2262 15.992C26.2262 18.584 30.3062 19.292 30.3062 21.332C30.3062 21.68 30.1862 22.064 29.9102 22.508L27.3542 20.852L25.6862 22.208C26.6462 22.904 27.8942 23.252 29.0582 23.252C30.6902 23.252 32.1062 22.124 32.1062 20.504ZM41.013 14.876C39.993 13.736 38.817 13.232 37.701 13.232C35.445 13.232 33.429 15.26 33.429 18.188C33.429 20.984 35.361 23.144 37.749 23.144C38.757 23.144 39.681 22.748 40.413 22.1C37.281 22.076 35.145 19.784 35.145 17C35.145 16.208 35.313 15.368 35.697 14.54C37.005 14.54 38.493 15.284 39.381 16.196L41.013 14.876ZM51.2731 23L50.1931 21.74L46.2331 12.92L42.2851 21.716L41.2051 23H44.5291L43.4491 21.728L44.0611 20.36H47.5291L48.1531 21.728L47.0731 23H51.2731ZM47.0251 19.268H44.5531L45.8251 16.436L47.0251 19.268ZM60.4035 13.4H57.1635L58.2315 14.66V19.52L54.2235 13.4H51.8955L52.6875 14.636V21.74L51.6315 23H54.8475L53.7915 21.74V16.304L58.3755 23.3L60.1035 21.908L59.3475 21.152V14.66L60.4035 13.4ZM69.8957 13.4H66.6557L67.7237 14.66V19.52L63.7157 13.4H61.3877L62.1797 14.636V21.74L61.1237 23H64.3397L63.2837 21.74V16.304L67.8677 23.3L69.5957 21.908L68.8397 21.152V14.66L69.8957 13.4ZM74.6599 23L73.6039 21.74V14.66L74.6599 13.4H70.6159L71.6719 14.66V21.74L70.6159 23H74.6599ZM84.1574 13.4H80.9174L81.9854 14.66V19.52L77.9774 13.4H75.6494L76.4414 14.636V21.74L75.3854 23H78.6014L77.5454 21.74V16.304L82.1294 23.3L83.8574 21.908L83.1014 21.152V14.66L84.1574 13.4ZM93.3016 21.932L92.4856 21.284V18.668H90.5536V22.364C88.2136 21.572 87.0376 19.208 87.0376 17.252C87.0376 16.4 87.1456 15.308 87.4696 14.54C88.8976 14.54 90.1696 15.188 91.1536 16.196L92.7856 14.876C91.9336 13.928 90.8176 13.256 89.5216 13.256C86.6296 13.256 85.2376 15.992 85.2376 17.984C85.2376 21.32 87.3736 23.132 89.8456 23.132C90.9856 23.132 92.1976 22.748 93.3016 21.932ZM95.0117 23V21.6992H96.3125V23H95.0117ZM99.0078 23V21.6992H100.309V23H99.0078ZM103.01 23V21.6992H104.311V23H103.01Z" fill="black"/>
</svg>
