<svg width="227" height="17" viewBox="0 0 227 17" fill="none" xmlns="http://www.w3.org/2000/svg">
<path d="M11.916 12.058C11.916 10.348 10.782 9.088 9.27 8.458C10.476 7.81 11.34 6.712 11.34 5.29C11.34 3.256 9.486 1.6 7.182 1.6H0.54L2.124 3.49V14.11L0.54 16H7.488C9.702 16 11.916 14.434 11.916 12.058ZM8.298 5.83C8.298 7.612 6.534 8.278 5.022 8.278V3.022C6.552 3.13 8.298 4.102 8.298 5.83ZM9 13.246C9 13.786 8.874 14.362 8.64 14.902L5.022 13.318V9.34C7.362 9.34 9 11.176 9 13.246ZM27.2685 8.782C27.2685 4.462 24.2805 1.366 20.5905 1.366C16.8825 1.366 13.8945 4.678 13.8945 8.998C13.8945 13.3 16.8825 16.234 20.5905 16.234C24.2805 16.234 27.2685 13.084 27.2685 8.782ZM24.7485 10.474C24.7485 11.716 24.4785 13.012 23.9205 14.326C19.2765 14.326 16.4685 11.176 16.4685 7.198C16.4685 5.974 16.7385 4.678 17.2965 3.364C21.9405 3.364 24.7485 6.514 24.7485 10.474ZM38.5235 12.256C38.5235 7.972 31.8815 7.072 31.8815 3.994C31.8815 3.634 31.9715 3.256 32.1695 2.824L35.8955 5.074L38.4335 3.022C37.1915 2.05 35.9135 1.33 34.1315 1.33C31.5395 1.33 29.7035 3.076 29.7035 5.488C29.7035 9.376 35.8235 10.438 35.8235 13.498C35.8235 14.02 35.6435 14.596 35.2295 15.262L31.3955 12.778L28.8935 14.812C30.3335 15.856 32.2055 16.378 33.9515 16.378C36.3995 16.378 38.5235 14.686 38.5235 12.256ZM51.8837 3.814C50.3537 2.104 48.5897 1.348 46.9157 1.348C43.5317 1.348 40.5077 4.39 40.5077 8.782C40.5077 12.976 43.4057 16.216 46.9877 16.216C48.4997 16.216 49.8857 15.622 50.9837 14.65C46.2857 14.614 43.0817 11.176 43.0817 7C43.0817 5.812 43.3337 4.552 43.9097 3.31C45.8717 3.31 48.1037 4.426 49.4357 5.794L51.8837 3.814ZM66.6873 16L65.1033 14.11V3.49L66.6873 1.6H60.6213L62.2053 3.49V7.63H57.6333V3.49L59.2173 1.6H53.1513L54.7353 3.49V14.11L53.1513 16H59.2173L57.6333 14.11V9.268H62.2053V14.11L60.6213 16H66.6873ZM86.8208 16L85.2008 14.11L79.2608 0.879999L73.3388 14.074L71.7188 16H76.7048L75.0848 14.092L76.0028 12.04H81.2048L82.1408 14.092L80.5208 16H86.8208ZM80.4488 10.402H76.7408L78.6488 6.154L80.4488 10.402ZM99.7064 14.344L98.1584 13.066L95.6384 9.628C97.8884 8.854 98.8784 7.378 98.8784 5.848C98.8784 3.724 96.9524 1.6 93.8384 1.6H87.3584L88.9424 3.49V14.11L87.3584 16H93.4244L91.8404 14.11V9.232L97.1324 16.45L99.7064 14.344ZM95.9444 6.946C95.9444 7.594 95.8364 8.35 95.3684 9.016L91.8584 7.468V3.022C94.1264 3.184 95.9444 4.948 95.9444 6.946ZM114.297 16V13.12L109.419 14.92V8.764L113.055 10.204V7.63H109.419V2.68L114.297 4.462V1.6H104.919L106.503 3.49V14.11L104.919 16H114.297ZM128.257 14.272L127.105 13.21L123.433 8.098L128.113 1.6H122.965L124.585 3.508L122.353 6.604L118.267 0.934L115.639 3.076L116.773 4.138L120.445 9.214L115.549 16H120.715L119.095 14.092L121.525 10.708L125.665 16.45L128.257 14.272ZM140.503 5.848C140.503 3.724 138.577 1.6 135.463 1.6H128.983L130.567 3.49V14.11L128.983 16H135.049L133.465 14.11V10.348L135.499 10.078C139.009 9.628 140.503 7.738 140.503 5.848ZM137.569 6.946C137.569 7.594 137.461 8.35 136.993 9.016L133.483 7.468V3.022C135.751 3.184 137.569 4.948 137.569 6.946ZM151.51 16V13.12L146.632 14.92V8.764L150.268 10.204V7.63H146.632V2.68L151.51 4.462V1.6H142.132L143.716 3.49V14.11L142.132 16H151.51ZM165.29 14.344L163.742 13.066L161.222 9.628C163.472 8.854 164.462 7.378 164.462 5.848C164.462 3.724 162.536 1.6 159.422 1.6H152.942L154.526 3.49V14.11L152.942 16H159.008L157.424 14.11V9.232L162.716 16.45L165.29 14.344ZM161.528 6.946C161.528 7.594 161.42 8.35 160.952 9.016L157.442 7.468V3.022C159.71 3.184 161.528 4.948 161.528 6.946ZM172.069 16L170.485 14.11V3.49L172.069 1.6H166.003L167.587 3.49V14.11L166.003 16H172.069ZM188.583 16L186.999 14.11V3.49L188.583 1.6H182.517L184.173 3.58L181.059 8.728L176.199 0.682L173.607 2.788L174.741 3.904V14.11L173.157 16H177.999L176.397 14.11V6.46L180.249 12.796L184.101 6.478V14.11L182.517 16H188.583ZM199.041 16V13.12L194.163 14.92V8.764L197.799 10.204V7.63H194.163V2.68L199.041 4.462V1.6H189.663L191.247 3.49V14.11L189.663 16H199.041ZM213.632 1.6H208.772L210.374 3.49V10.78L204.362 1.6H200.87L202.058 3.454V14.11L200.474 16H205.298L203.714 14.11V5.956L210.59 16.45L213.182 14.362L212.048 13.228V3.49L213.632 1.6ZM226.34 4.588V1.6H215.072V4.588L219.248 2.68V14.11L217.664 16H223.748L222.164 14.11V2.68L226.34 4.588Z" fill="#DB1D51"/>
</svg>
