<svg width="370" height="89" viewBox="0 0 370 89" fill="none" xmlns="http://www.w3.org/2000/svg">
<path d="M29.793 24.831C29.793 20.061 26.666 17.411 22.638 16.669C26.242 16.086 28.786 13.436 28.786 9.673C28.786 4.214 25.182 0.609997 16.755 0.609997H1.915V34H17.603C25.394 34 29.793 30.608 29.793 24.831ZM16.861 19.531C20.995 19.531 23.009 21.333 23.009 24.142C23.009 26.898 20.995 28.647 16.861 28.647H8.381V19.531H16.861ZM8.381 5.963H16.331C20.306 5.963 22.002 7.765 22.002 10.256C22.002 12.747 20.306 14.496 16.331 14.496H8.381V5.963ZM50.2166 10.945C49.5276 10.362 48.3616 9.991 46.9306 9.991C43.6976 9.991 41.2596 12.429 40.4116 15.079V10.627H34.0516V34H40.4116V22.446C40.4116 18.206 42.6376 15.874 45.9236 15.874C47.4606 15.874 48.5206 16.192 49.7396 16.881L50.2166 10.945ZM53.202 10.627V34H59.562V10.627H53.202ZM53.096 6.811H59.615V0.609997H53.096V6.811ZM71.2593 21.492C71.2593 17.57 73.2733 15.026 76.5063 15.026C79.6333 15.026 81.0643 17.093 81.0643 20.697V34H87.4243V19.425C87.4243 14.231 85.1453 9.991 78.8913 9.991C75.3933 9.991 72.4253 11.793 71.2593 14.443V10.627H64.8993V34H71.2593V21.492ZM113.155 17.994C113.155 16.669 112.784 15.45 112.148 14.443C113.367 14.019 114.904 13.807 116.176 13.807V8.719C113.632 8.719 111.3 10.203 109.975 12.058C108.067 10.733 105.417 9.991 102.555 9.991C96.407 9.991 92.008 13.012 92.008 17.994C92.008 20.538 93.227 22.605 95.241 23.983C92.962 24.884 91.478 26.474 91.478 28.594C91.478 30.502 92.591 32.198 94.711 32.887C91.955 33.258 90.047 34.954 90.047 37.339C90.047 41.685 95.559 43.328 102.025 43.328C109.286 43.328 116.07 40.89 116.07 35.06C116.07 31.297 113.42 28.488 108.226 28.488H98.898C97.149 28.488 96.46 27.799 96.46 26.739C96.46 25.997 96.831 25.414 97.414 25.043C98.898 25.626 100.647 25.891 102.555 25.891C108.703 25.891 113.155 22.87 113.155 17.994ZM95.824 36.385C95.824 34.689 97.202 34 98.898 34H106.689C108.809 34 110.081 34.583 110.081 36.12C110.081 38.399 106.689 39.459 102.025 39.459C98.262 39.459 95.824 38.505 95.824 36.385ZM106.689 17.994C106.689 20.697 105.046 22.128 102.608 22.128C100.223 22.128 98.58 20.697 98.58 17.994C98.58 15.291 100.223 13.86 102.608 13.86C105.046 13.86 106.689 15.291 106.689 17.994ZM156.496 24.831C156.496 20.061 153.369 17.411 149.341 16.669C152.945 16.086 155.489 13.436 155.489 9.673C155.489 4.214 151.885 0.609997 143.458 0.609997H128.618V34H144.306C152.097 34 156.496 30.608 156.496 24.831ZM143.564 19.531C147.698 19.531 149.712 21.333 149.712 24.142C149.712 26.898 147.698 28.647 143.564 28.647H135.084V19.531H143.564ZM135.084 5.963H143.034C147.009 5.963 148.705 7.765 148.705 10.256C148.705 12.747 147.009 14.496 143.034 14.496H135.084V5.963ZM166.049 22.34C166.049 17.888 168.063 14.814 171.932 14.814C175.854 14.814 177.868 17.888 177.868 22.34C177.868 26.739 175.854 29.813 171.932 29.813C168.063 29.813 166.049 26.739 166.049 22.34ZM184.281 22.34C184.281 15.079 179.193 9.991 171.932 9.991C164.724 9.991 159.636 15.079 159.636 22.34C159.636 29.601 164.724 34.636 171.932 34.636C179.193 34.636 184.281 29.601 184.281 22.34ZM186.646 26.262C187.07 31.986 191.734 34.636 197.829 34.636C203.871 34.636 208.005 31.986 208.005 27.216C208.005 22.817 205.09 20.75 200.161 19.955L195.709 19.213C194.013 18.948 193.165 18.206 193.165 16.934C193.165 15.344 194.649 14.337 196.928 14.337C200.267 14.337 202.069 15.662 202.493 18.312L207.74 18.1C207.316 12.906 203.447 9.991 196.981 9.991C191.045 9.991 187.282 13.065 187.282 17.517C187.282 21.863 190.038 23.718 195.02 24.513L198.73 25.149C201.062 25.52 202.122 26.209 202.122 27.799C202.122 29.495 200.214 30.29 197.882 30.29C194.649 30.29 192.529 28.859 192.158 26.05L186.646 26.262ZM210.669 22.34C210.669 29.76 215.81 34.636 223.018 34.636C229.961 34.636 233.777 30.078 234.307 24.46L228.954 23.983C228.477 27.534 226.516 29.76 223.018 29.76C219.52 29.76 217.082 27.163 217.082 22.34C217.082 17.464 219.52 14.867 223.018 14.867C226.516 14.867 228.477 17.04 228.954 20.538L234.307 20.167C233.777 14.549 229.961 9.991 223.018 9.991C215.81 9.991 210.669 14.92 210.669 22.34ZM244.596 21.492C244.596 17.57 246.61 15.026 249.843 15.026C252.97 15.026 254.401 17.093 254.401 20.697V34H260.761V19.425C260.761 14.231 258.482 9.991 252.228 9.991C248.73 9.991 245.762 11.793 244.596 14.443V0.609997H238.236V34H244.596V21.492ZM263.732 7.023H266.965C266.912 9.249 266.011 9.938 263.732 10.044V13.33C268.767 13.277 270.728 11.104 270.728 6.705V0.609997H263.732V7.023ZM271.114 26.262C271.538 31.986 276.202 34.636 282.297 34.636C288.339 34.636 292.473 31.986 292.473 27.216C292.473 22.817 289.558 20.75 284.629 19.955L280.177 19.213C278.481 18.948 277.633 18.206 277.633 16.934C277.633 15.344 279.117 14.337 281.396 14.337C284.735 14.337 286.537 15.662 286.961 18.312L292.208 18.1C291.784 12.906 287.915 9.991 281.449 9.991C275.513 9.991 271.75 13.065 271.75 17.517C271.75 21.863 274.506 23.718 279.488 24.513L283.198 25.149C285.53 25.52 286.59 26.209 286.59 27.799C286.59 29.495 284.682 30.29 282.35 30.29C279.117 30.29 276.997 28.859 276.626 26.05L271.114 26.262ZM320.032 23.877C320.032 27.64 317.488 30.184 314.149 30.184C312.135 30.184 310.916 29.23 310.916 27.64C310.916 25.308 312.877 24.831 315.633 24.248L320.032 23.294V23.877ZM326.233 19.001C326.233 12.853 322.258 9.991 316.216 9.991C310.015 9.991 306.358 13.33 305.563 18.1L311.34 18.63C311.87 16.351 313.301 14.761 315.951 14.761C318.654 14.761 320.032 16.351 320.032 18.948V19.478L313.619 20.75C308.319 21.81 304.715 23.665 304.715 28.117C304.715 32.145 307.683 34.583 312.559 34.583C316.004 34.583 319.184 33.152 320.509 30.449C321.092 32.993 322.788 34.53 325.438 34.53C327.558 34.53 328.83 33.841 329.837 33.046V29.654C329.148 29.972 328.512 30.131 327.876 30.131C326.869 30.131 326.233 29.548 326.233 28.329V19.001ZM349.014 10.945C348.325 10.362 347.159 9.991 345.728 9.991C342.495 9.991 340.057 12.429 339.209 15.079V10.627H332.849V34H339.209V22.446C339.209 18.206 341.435 15.874 344.721 15.874C346.258 15.874 347.318 16.192 348.537 16.881L349.014 10.945ZM353.623 28.064C353.623 33.046 356.644 34.636 360.248 34.636C363.11 34.636 365.018 33.894 366.714 32.622V28.435C365.336 29.071 364.011 29.548 362.739 29.548C360.831 29.548 359.93 28.647 359.93 26.633V15.079H366.29V10.627H359.93V4.161H356.061L355.319 7.341C354.789 9.514 354.153 10.68 351.874 11.051L350.284 11.316V15.079H353.623V28.064ZM6.738 76.34C6.738 71.888 8.752 68.814 12.621 68.814C16.543 68.814 18.557 71.888 18.557 76.34C18.557 80.739 16.543 83.813 12.621 83.813C8.752 83.813 6.738 80.739 6.738 76.34ZM24.97 76.34C24.97 69.079 19.882 63.991 12.621 63.991C5.413 63.991 0.325 69.079 0.325 76.34C0.325 83.601 5.413 88.636 12.621 88.636C19.882 88.636 24.97 83.601 24.97 76.34ZM44.5614 77.135C44.5614 81.11 42.6534 83.654 39.5264 83.654C36.3994 83.654 35.0744 81.534 35.0744 77.983V64.627H28.7144V79.255C28.7144 84.449 30.8344 88.636 37.0354 88.636C40.5864 88.636 43.3424 86.887 44.5614 84.184V88H50.9214V64.627H44.5614V77.135ZM57.1025 82.064C57.1025 87.046 60.1235 88.636 63.7275 88.636C66.5895 88.636 68.4975 87.894 70.1935 86.622V82.435C68.8155 83.071 67.4905 83.548 66.2185 83.548C64.3105 83.548 63.4095 82.647 63.4095 80.633V69.079H69.7695V64.627H63.4095V58.161H59.5405L58.7985 61.341C58.2685 63.514 57.6325 64.68 55.3535 65.051L53.7635 65.316V69.079H57.1025V82.064ZM88.3601 76.34C88.3601 71.888 90.3741 68.814 94.2431 68.814C98.1651 68.814 100.179 71.888 100.179 76.34C100.179 80.739 98.1651 83.813 94.2431 83.813C90.3741 83.813 88.3601 80.739 88.3601 76.34ZM106.592 76.34C106.592 69.079 101.504 63.991 94.2431 63.991C87.0351 63.991 81.9471 69.079 81.9471 76.34C81.9471 83.601 87.0351 88.636 94.2431 88.636C101.504 88.636 106.592 83.601 106.592 76.34ZM111.502 69.079V88H117.809V69.079H124.063V64.627H117.809V62.189C117.809 60.016 118.657 58.532 120.618 58.532C122.261 58.532 123.268 59.539 123.798 61.023L127.879 59.698C126.872 55.988 124.275 53.974 120.035 53.974C114.788 53.974 111.502 57.207 111.502 62.666V64.627H108.057V69.079H111.502ZM137.017 82.064C137.017 87.046 140.038 88.636 143.642 88.636C146.504 88.636 148.412 87.894 150.108 86.622V82.435C148.73 83.071 147.405 83.548 146.133 83.548C144.225 83.548 143.324 82.647 143.324 80.633V69.079H149.684V64.627H143.324V58.161H139.455L138.713 61.341C138.183 63.514 137.547 64.68 135.268 65.051L133.678 65.316V69.079H137.017V82.064ZM160.076 75.492C160.076 71.57 162.09 69.026 165.323 69.026C168.45 69.026 169.881 71.093 169.881 74.697V88H176.241V73.425C176.241 68.231 173.962 63.991 167.708 63.991C164.21 63.991 161.242 65.793 160.076 68.443V54.61H153.716V88H160.076V75.492ZM198.473 79.838C197.572 82.488 195.717 83.813 192.59 83.813C189.145 83.813 186.442 81.375 186.23 77.93H203.773V75.651C203.773 69.291 199.851 63.991 192.219 63.991C185.223 63.991 179.976 69.291 179.976 76.658C179.976 84.025 185.17 88.636 192.378 88.636C198.367 88.636 202.395 85.562 203.614 80.368L198.473 79.838ZM186.336 73.955C186.919 71.04 188.668 68.655 192.166 68.655C195.717 68.655 197.36 71.252 197.572 73.955H186.336ZM216 76.34C216 83.76 221.141 88.636 228.349 88.636C235.292 88.636 239.108 84.078 239.638 78.46L234.285 77.983C233.808 81.534 231.847 83.76 228.349 83.76C224.851 83.76 222.413 81.163 222.413 76.34C222.413 71.464 224.851 68.867 228.349 68.867C231.847 68.867 233.808 71.04 234.285 74.538L239.638 74.167C239.108 68.549 235.292 63.991 228.349 63.991C221.141 63.991 216 68.92 216 76.34ZM257.612 77.877C257.612 81.64 255.068 84.184 251.729 84.184C249.715 84.184 248.496 83.23 248.496 81.64C248.496 79.308 250.457 78.831 253.213 78.248L257.612 77.294V77.877ZM263.813 73.001C263.813 66.853 259.838 63.991 253.796 63.991C247.595 63.991 243.938 67.33 243.143 72.1L248.92 72.63C249.45 70.351 250.881 68.761 253.531 68.761C256.234 68.761 257.612 70.351 257.612 72.948V73.478L251.199 74.75C245.899 75.81 242.295 77.665 242.295 82.117C242.295 86.145 245.263 88.583 250.139 88.583C253.584 88.583 256.764 87.152 258.089 84.449C258.672 86.993 260.368 88.53 263.018 88.53C265.138 88.53 266.41 87.841 267.417 87.046V83.654C266.728 83.972 266.092 84.131 265.456 84.131C264.449 84.131 263.813 83.548 263.813 82.329V73.001ZM276.79 75.492C276.79 71.57 278.804 69.026 282.037 69.026C285.164 69.026 286.595 71.093 286.595 74.697V88H292.955V73.425C292.955 68.231 290.676 63.991 284.422 63.991C280.924 63.991 277.956 65.793 276.79 68.443V64.627H270.43V88H276.79V75.492ZM311.483 88L320.705 64.627H314.504L308.356 80.951H308.144L301.943 64.627H295.265L304.487 88H311.483ZM336.957 77.877C336.957 81.64 334.413 84.184 331.074 84.184C329.06 84.184 327.841 83.23 327.841 81.64C327.841 79.308 329.802 78.831 332.558 78.248L336.957 77.294V77.877ZM343.158 73.001C343.158 66.853 339.183 63.991 333.141 63.991C326.94 63.991 323.283 67.33 322.488 72.1L328.265 72.63C328.795 70.351 330.226 68.761 332.876 68.761C335.579 68.761 336.957 70.351 336.957 72.948V73.478L330.544 74.75C325.244 75.81 321.64 77.665 321.64 82.117C321.64 86.145 324.608 88.583 329.484 88.583C332.929 88.583 336.109 87.152 337.434 84.449C338.017 86.993 339.713 88.53 342.363 88.53C344.483 88.53 345.755 87.841 346.762 87.046V83.654C346.073 83.972 345.437 84.131 344.801 84.131C343.794 84.131 343.158 83.548 343.158 82.329V73.001ZM348.078 80.262C348.502 85.986 353.166 88.636 359.261 88.636C365.303 88.636 369.437 85.986 369.437 81.216C369.437 76.817 366.522 74.75 361.593 73.955L357.141 73.213C355.445 72.948 354.597 72.206 354.597 70.934C354.597 69.344 356.081 68.337 358.36 68.337C361.699 68.337 363.501 69.662 363.925 72.312L369.172 72.1C368.748 66.906 364.879 63.991 358.413 63.991C352.477 63.991 348.714 67.065 348.714 71.517C348.714 75.863 351.47 77.718 356.452 78.513L360.162 79.149C362.494 79.52 363.554 80.209 363.554 81.799C363.554 83.495 361.646 84.29 359.314 84.29C356.081 84.29 353.961 82.859 353.59 80.05L348.078 80.262Z" fill="black"/>
</svg>
