<svg width="112" height="11" viewBox="0 0 112 11" fill="none" xmlns="http://www.w3.org/2000/svg">
<path d="M1.664 7.023C1.70733 7.63833 1.95433 8.13233 2.405 8.505C2.85567 8.869 3.42767 9.051 4.121 9.051C4.745 9.051 5.24767 8.91667 5.629 8.648C6.019 8.37067 6.214 7.98933 6.214 7.504C6.214 7.14867 6.10567 6.867 5.889 6.659C5.681 6.451 5.408 6.29933 5.07 6.204C4.74067 6.1 4.29 6.00033 3.718 5.905C2.808 5.749 2.08433 5.49333 1.547 5.138C1.00967 4.78267 0.741 4.20633 0.741 3.409C0.741 2.89767 0.871 2.447 1.131 2.057C1.391 1.65833 1.755 1.35067 2.223 1.134C2.69967 0.917333 3.24133 0.809 3.848 0.809C4.48933 0.809 5.057 0.926 5.551 1.16C6.045 1.394 6.435 1.72333 6.721 2.148C7.007 2.564 7.16733 3.045 7.202 3.591H6.084C6.01467 3.06233 5.77633 2.63767 5.369 2.317C4.96167 1.99633 4.45467 1.836 3.848 1.836C3.24133 1.836 2.76033 1.97033 2.405 2.239C2.04967 2.499 1.872 2.86733 1.872 3.344C1.872 3.69067 1.976 3.96367 2.184 4.163C2.392 4.35367 2.66067 4.501 2.99 4.605C3.31933 4.70033 3.77 4.79567 4.342 4.891C5.252 5.047 5.98 5.307 6.526 5.671C7.072 6.02633 7.345 6.60267 7.345 7.4C7.345 7.92 7.20633 8.38367 6.929 8.791C6.66033 9.19833 6.279 9.51467 5.785 9.74C5.29967 9.96533 4.74067 10.078 4.108 10.078C3.39733 10.078 2.77767 9.95233 2.249 9.701C1.72033 9.441 1.30867 9.08133 1.014 8.622C0.728 8.154 0.572 7.621 0.546 7.023H1.664ZM14.5395 7.712C14.4008 8.44867 14.0758 9.02933 13.5645 9.454C13.0532 9.87 12.4032 10.078 11.6145 10.078C10.9732 10.078 10.4098 9.935 9.92448 9.649C9.43915 9.363 9.06215 8.96433 8.79348 8.453C8.52482 7.933 8.39048 7.33933 8.39048 6.672C8.39048 6.00467 8.52482 5.41533 8.79348 4.904C9.07082 4.39267 9.45648 3.99833 9.95048 3.721C10.4445 3.435 11.0122 3.292 11.6535 3.292C12.4335 3.292 13.0748 3.5 13.5775 3.916C14.0888 4.332 14.4095 4.904 14.5395 5.632H13.4605C13.3565 5.20733 13.1398 4.86933 12.8105 4.618C12.4812 4.36667 12.0825 4.241 11.6145 4.241C10.9818 4.241 10.4662 4.46633 10.0675 4.917C9.67748 5.36767 9.48248 5.95267 9.48248 6.672C9.48248 7.4 9.67748 7.99367 10.0675 8.453C10.4662 8.90367 10.9818 9.129 11.6145 9.129C12.0998 9.129 12.5072 9.00333 12.8365 8.752C13.1658 8.50067 13.3782 8.154 13.4735 7.712H14.5395ZM19.1389 3.37V4.41H18.6059C17.9733 4.41 17.5183 4.62233 17.2409 5.047C16.9723 5.47167 16.8379 5.996 16.8379 6.62V10H15.7719V3.37H16.6949L16.8379 4.371C17.0286 4.06767 17.2756 3.825 17.5789 3.643C17.8823 3.461 18.3026 3.37 18.8399 3.37H19.1389ZM22.7879 10.078C22.1465 10.078 21.5745 9.935 21.0719 9.649C20.5779 9.363 20.1922 8.96433 19.9149 8.453C19.6375 7.94167 19.4989 7.35233 19.4989 6.685C19.4989 6.01767 19.6375 5.42833 19.9149 4.917C20.1922 4.40567 20.5779 4.007 21.0719 3.721C21.5745 3.435 22.1465 3.292 22.7879 3.292C23.4292 3.292 23.9969 3.435 24.4909 3.721C24.9935 4.007 25.3835 4.40567 25.6609 4.917C25.9382 5.42833 26.0769 6.01767 26.0769 6.685C26.0769 7.35233 25.9382 7.94167 25.6609 8.453C25.3835 8.96433 24.9935 9.363 24.4909 9.649C23.9969 9.935 23.4292 10.078 22.7879 10.078ZM22.7879 9.129C23.2212 9.129 23.6025 9.025 23.9319 8.817C24.2699 8.609 24.5299 8.31867 24.7119 7.946C24.8939 7.57333 24.9849 7.153 24.9849 6.685C24.9849 6.217 24.8939 5.79667 24.7119 5.424C24.5299 5.05133 24.2699 4.761 23.9319 4.553C23.6025 4.345 23.2212 4.241 22.7879 4.241C22.3545 4.241 21.9689 4.345 21.6309 4.553C21.3015 4.761 21.0459 5.05133 20.8639 5.424C20.6819 5.79667 20.5909 6.217 20.5909 6.685C20.5909 7.153 20.6819 7.57333 20.8639 7.946C21.0459 8.31867 21.3015 8.609 21.6309 8.817C21.9689 9.025 22.3545 9.129 22.7879 9.129ZM27.2993 0.899999H28.3653V10H27.2993V0.899999ZM29.8257 0.899999H30.8917V10H29.8257V0.899999ZM36.1964 4.345H35.0004V3.37H36.1964V1.511H37.2624V3.37H38.9394V4.345H37.2624V8.258C37.2624 8.53533 37.3144 8.73467 37.4184 8.856C37.531 8.96867 37.7217 9.025 37.9904 9.025H39.1474V10H37.9254C37.3014 10 36.855 9.86133 36.5864 9.584C36.3264 9.30667 36.1964 8.869 36.1964 8.271V4.345ZM42.7957 10.078C42.1544 10.078 41.5824 9.935 41.0797 9.649C40.5857 9.363 40.2 8.96433 39.9227 8.453C39.6454 7.94167 39.5067 7.35233 39.5067 6.685C39.5067 6.01767 39.6454 5.42833 39.9227 4.917C40.2 4.40567 40.5857 4.007 41.0797 3.721C41.5824 3.435 42.1544 3.292 42.7957 3.292C43.437 3.292 44.0047 3.435 44.4987 3.721C45.0014 4.007 45.3914 4.40567 45.6687 4.917C45.946 5.42833 46.0847 6.01767 46.0847 6.685C46.0847 7.35233 45.946 7.94167 45.6687 8.453C45.3914 8.96433 45.0014 9.363 44.4987 9.649C44.0047 9.935 43.437 10.078 42.7957 10.078ZM42.7957 9.129C43.229 9.129 43.6104 9.025 43.9397 8.817C44.2777 8.609 44.5377 8.31867 44.7197 7.946C44.9017 7.57333 44.9927 7.153 44.9927 6.685C44.9927 6.217 44.9017 5.79667 44.7197 5.424C44.5377 5.05133 44.2777 4.761 43.9397 4.553C43.6104 4.345 43.229 4.241 42.7957 4.241C42.3624 4.241 41.9767 4.345 41.6387 4.553C41.3094 4.761 41.0537 5.05133 40.8717 5.424C40.6897 5.79667 40.5987 6.217 40.5987 6.685C40.5987 7.153 40.6897 7.57333 40.8717 7.946C41.0537 8.31867 41.3094 8.609 41.6387 8.817C41.9767 9.025 42.3624 9.129 42.7957 9.129ZM50.7094 0.899999H51.7754V10H50.7094V0.899999ZM53.0018 6.685C53.0018 6.009 53.1318 5.41533 53.3918 4.904C53.6605 4.39267 54.0331 3.99833 54.5098 3.721C54.9865 3.435 55.5325 3.292 56.1478 3.292C56.7545 3.292 57.2918 3.41767 57.7598 3.669C58.2278 3.92033 58.5961 4.28433 58.8648 4.761C59.1335 5.23767 59.2765 5.79667 59.2938 6.438C59.2938 6.53333 59.2851 6.685 59.2678 6.893H54.1198V6.984C54.1371 7.634 54.3365 8.154 54.7178 8.544C55.0991 8.934 55.5975 9.129 56.2128 9.129C56.6895 9.129 57.0925 9.012 57.4218 8.778C57.7598 8.53533 57.9851 8.20167 58.0978 7.777H59.1768C59.0468 8.453 58.7218 9.00767 58.2018 9.441C57.6818 9.86567 57.0448 10.078 56.2908 10.078C55.6321 10.078 55.0558 9.93933 54.5618 9.662C54.0678 9.376 53.6821 8.97733 53.4048 8.466C53.1361 7.946 53.0018 7.35233 53.0018 6.685ZM58.1888 6.009C58.1368 5.44567 57.9245 5.008 57.5518 4.696C57.1878 4.384 56.7241 4.228 56.1608 4.228C55.6581 4.228 55.2161 4.39267 54.8348 4.722C54.4535 5.05133 54.2368 5.48033 54.1848 6.009H58.1888ZM66.7112 9.025V10H66.1262C65.7016 10 65.3982 9.91333 65.2162 9.74C65.0342 9.56667 64.9389 9.311 64.9302 8.973C64.4189 9.70967 63.6779 10.078 62.7072 10.078C61.9706 10.078 61.3769 9.90467 60.9262 9.558C60.4842 9.21133 60.2632 8.739 60.2632 8.141C60.2632 7.47367 60.4886 6.96233 60.9392 6.607C61.3986 6.25167 62.0616 6.074 62.9282 6.074H64.8782V5.619C64.8782 5.18567 64.7309 4.84767 64.4362 4.605C64.1502 4.36233 63.7472 4.241 63.2272 4.241C62.7679 4.241 62.3866 4.345 62.0832 4.553C61.7886 4.75233 61.6066 5.021 61.5372 5.359H60.4712C60.5492 4.709 60.8352 4.202 61.3292 3.838C61.8319 3.474 62.4819 3.292 63.2792 3.292C64.1286 3.292 64.7829 3.5 65.2422 3.916C65.7102 4.32333 65.9442 4.91267 65.9442 5.684V8.544C65.9442 8.86467 66.0916 9.025 66.3862 9.025H66.7112ZM64.8782 6.971H62.8242C61.8362 6.971 61.3422 7.33933 61.3422 8.076C61.3422 8.40533 61.4722 8.66967 61.7322 8.869C61.9922 9.06833 62.3432 9.168 62.7852 9.168C63.4352 9.168 63.9466 8.999 64.3192 8.661C64.6919 8.31433 64.8782 7.85933 64.8782 7.296V6.971ZM70.8977 3.37V4.41H70.3647C69.7321 4.41 69.2771 4.62233 68.9997 5.047C68.7311 5.47167 68.5967 5.996 68.5967 6.62V10H67.5307V3.37H68.4537L68.5967 4.371C68.7874 4.06767 69.0344 3.825 69.3377 3.643C69.6411 3.461 70.0614 3.37 70.5987 3.37H70.8977ZM75.1225 3.292C75.9285 3.292 76.5742 3.53467 77.0595 4.02C77.5535 4.50533 77.8005 5.268 77.8005 6.308V10H76.7345V6.373C76.7345 5.68833 76.5785 5.16833 76.2665 4.813C75.9632 4.449 75.5212 4.267 74.9405 4.267C74.3165 4.267 73.8269 4.48367 73.4715 4.917C73.1162 5.35033 72.9385 5.93967 72.9385 6.685V10H71.8725V3.37H72.7955L72.9385 4.267C73.4412 3.617 74.1692 3.292 75.1225 3.292ZM89.959 3.292C90.7043 3.292 91.3067 3.526 91.766 3.994C92.234 4.462 92.468 5.19 92.468 6.178V10H91.402V6.243C91.402 5.60167 91.2633 5.112 90.986 4.774C90.7173 4.436 90.3317 4.267 89.829 4.267C89.2743 4.267 88.8367 4.462 88.516 4.852C88.204 5.242 88.048 5.775 88.048 6.451V10H86.982V6.243C86.982 5.60167 86.8433 5.112 86.566 4.774C86.2887 4.436 85.8943 4.267 85.383 4.267C84.8457 4.267 84.4167 4.475 84.096 4.891C83.784 5.29833 83.628 5.83567 83.628 6.503V10H82.562V3.37H83.485L83.628 4.28C84.1047 3.62133 84.7503 3.292 85.565 3.292C86.0417 3.292 86.462 3.40033 86.826 3.617C87.1987 3.825 87.476 4.137 87.658 4.553C88.1347 3.71233 88.9017 3.292 89.959 3.292ZM96.8904 10.078C96.2491 10.078 95.6771 9.935 95.1744 9.649C94.6804 9.363 94.2948 8.96433 94.0174 8.453C93.7401 7.94167 93.6014 7.35233 93.6014 6.685C93.6014 6.01767 93.7401 5.42833 94.0174 4.917C94.2948 4.40567 94.6804 4.007 95.1744 3.721C95.6771 3.435 96.2491 3.292 96.8904 3.292C97.5318 3.292 98.0994 3.435 98.5934 3.721C99.0961 4.007 99.4861 4.40567 99.7634 4.917C100.041 5.42833 100.179 6.01767 100.179 6.685C100.179 7.35233 100.041 7.94167 99.7634 8.453C99.4861 8.96433 99.0961 9.363 98.5934 9.649C98.0994 9.935 97.5318 10.078 96.8904 10.078ZM96.8904 9.129C97.3238 9.129 97.7051 9.025 98.0344 8.817C98.3724 8.609 98.6324 8.31867 98.8144 7.946C98.9964 7.57333 99.0874 7.153 99.0874 6.685C99.0874 6.217 98.9964 5.79667 98.8144 5.424C98.6324 5.05133 98.3724 4.761 98.0344 4.553C97.7051 4.345 97.3238 4.241 96.8904 4.241C96.4571 4.241 96.0714 4.345 95.7334 4.553C95.4041 4.761 95.1484 5.05133 94.9664 5.424C94.7844 5.79667 94.6934 6.217 94.6934 6.685C94.6934 7.153 94.7844 7.57333 94.9664 7.946C95.1484 8.31867 95.4041 8.609 95.7334 8.817C96.0714 9.025 96.4571 9.129 96.8904 9.129ZM104.769 3.37V4.41H104.236C103.603 4.41 103.148 4.62233 102.871 5.047C102.602 5.47167 102.468 5.996 102.468 6.62V10H101.402V3.37H102.325L102.468 4.371C102.658 4.06767 102.905 3.825 103.209 3.643C103.512 3.461 103.932 3.37 104.47 3.37H104.769ZM105.129 6.685C105.129 6.009 105.259 5.41533 105.519 4.904C105.787 4.39267 106.16 3.99833 106.637 3.721C107.113 3.435 107.659 3.292 108.275 3.292C108.881 3.292 109.419 3.41767 109.887 3.669C110.355 3.92033 110.723 4.28433 110.992 4.761C111.26 5.23767 111.403 5.79667 111.421 6.438C111.421 6.53333 111.412 6.685 111.395 6.893H106.247V6.984C106.264 7.634 106.463 8.154 106.845 8.544C107.226 8.934 107.724 9.129 108.34 9.129C108.816 9.129 109.219 9.012 109.549 8.778C109.887 8.53533 110.112 8.20167 110.225 7.777H111.304C111.174 8.453 110.849 9.00767 110.329 9.441C109.809 9.86567 109.172 10.078 108.418 10.078C107.759 10.078 107.183 9.93933 106.689 9.662C106.195 9.376 105.809 8.97733 105.532 8.466C105.263 7.946 105.129 7.35233 105.129 6.685ZM110.316 6.009C110.264 5.44567 110.051 5.008 109.679 4.696C109.315 4.384 108.851 4.228 108.288 4.228C107.785 4.228 107.343 4.39267 106.962 4.722C106.58 5.05133 106.364 5.48033 106.312 6.009H110.316Z" fill="black"/>
</svg>
